<?xml version="1.0" encoding="UTF-8" standalone="no"?>
<svg
   xmlns:dc="http://purl.org/dc/elements/1.1/"
   xmlns:cc="http://creativecommons.org/ns#"
   xmlns:rdf="http://www.w3.org/1999/02/22-rdf-syntax-ns#"
   xmlns:svg="http://www.w3.org/2000/svg"
   xmlns="http://www.w3.org/2000/svg"
   xmlns:sodipodi="http://sodipodi.sourceforge.net/DTD/sodipodi-0.dtd"
   xmlns:inkscape="http://www.inkscape.org/namespaces/inkscape"
   version="1.0"
   width="148pt"
   height="48pt"
   viewBox="0 0 148 48"
   preserveAspectRatio="xMidYMid meet"
   id="svg3336"
   inkscape:version="0.91 r13725"
   sodipodi:docname="fakultaet.svg">
  <defs
     id="defs3348" />
  <sodipodi:namedview
     pagecolor="#84b819"
     bordercolor="#666666"
     borderopacity="1"
     objecttolerance="10"
     gridtolerance="10"
     guidetolerance="10"
     inkscape:pageopacity="1"
     inkscape:pageshadow="2"
     inkscape:window-width="1366"
     inkscape:window-height="704"
     id="namedview3346"
     showgrid="false"
     showborder="true"
     showguides="false"
     inkscape:zoom="3.91799"
     inkscape:cx="108.41879"
     inkscape:cy="39.689399"
     inkscape:window-x="0"
     inkscape:window-y="32"
     inkscape:window-maximized="1"
     inkscape:current-layer="layer3"
     borderlayer="true" />
  <metadata
     id="metadata3338">
Created by potrace 1.12, written by Peter Selinger 2001-2015
<rdf:RDF>
  <cc:Work
     rdf:about="">
    <dc:format>image/svg+xml</dc:format>
    <dc:type
       rdf:resource="http://purl.org/dc/dcmitype/StillImage" />
    <dc:title></dc:title>
  </cc:Work>
</rdf:RDF>
</metadata>
  <g
     inkscape:groupmode="layer"
     id="layer1"
     inkscape:label="bg"
     style="display:inline">
    <path
       sodipodi:type="inkscape:offset"
       inkscape:radius="1.5813727"
       inkscape:original="M 23.1875 3.2148438 C 21.613055 3.1891609 20.254453 3.2215651 19.640625 3.2988281 C 18.409858 3.4537454 16.479667 3.951458 15.728516 4.3085938 C 14.043389 5.1097896 12.00995 7.8884044 10.582031 11.337891 C 10.08916 12.52854 9.8119523 13.653723 9.6191406 15.248047 C 9.4412501 16.718992 9.2441743 17.232252 8.7304688 17.574219 C 8.3207583 17.84696 7.3217744 18.038969 6.2929688 18.042969 C 4.9631069 18.048178 3.5949098 18.226715 3.1191406 18.457031 C 2.285732 18.860478 2.2498132 19.002622 2.2070312 22.048828 C 2.1651335 25.032073 2.2192673 25.425839 2.7597656 26.015625 C 3.1787597 26.472826 3.6112429 26.573578 5.1894531 26.580078 C 5.8115462 26.582628 7.0490462 26.615757 7.9394531 26.654297 L 9.5585938 26.724609 L 9.5585938 42.353516 L 9.5585938 57.982422 L 13.882812 57.982422 L 18.208984 57.982422 L 18.208984 42.335938 L 18.208984 26.691406 L 28.248047 26.691406 L 38.287109 26.691406 L 38.291016 30.509766 C 38.297265 35.800265 38.46709 43.913809 38.601562 45.326172 C 39.532588 55.104741 42.470108 57.887173 51.849609 57.873047 C 55.210032 57.867988 56.135596 57.677805 56.601562 56.898438 C 56.795635 56.573829 56.816406 56.351228 56.816406 54.458984 C 56.816406 52.115474 56.76069 51.715811 56.376953 51.259766 C 56.010225 50.823935 55.644659 50.741854 53.28125 50.560547 C 51.043302 50.388866 50.256352 50.204965 49.404297 49.658203 C 47.606275 48.504415 46.658843 46.378481 46.144531 42.335938 C 45.840614 39.947125 45.767014 38.077661 45.708984 31.496094 C 45.677133 27.883715 45.622631 23.378671 45.587891 21.484375 L 45.523438 18.041016 L 34.722656 18.039062 C 19.898999 18.036993 18.953759 17.963553 18.453125 16.777344 C 18.311393 16.441511 18.304912 16.247963 18.412109 15.433594 C 18.573647 14.206421 18.852412 13.574492 19.5 12.96875 C 20.16146 12.350031 20.703767 12.118076 22.417969 11.722656 C 24.160168 11.320777 24.666631 11.147527 25.224609 10.763672 C 26.122599 10.145907 26.589871 8.594463 26.716797 5.8125 C 26.790822 4.1900234 26.678149 3.7602399 26.09375 3.4472656 C 25.788444 3.2837604 25.378519 3.2505838 23.1875 3.2148438 z "
       style="fill:#ffffff;fill-opacity:1"
       id="path4212"
       d="m 23.212891,1.6328125 c -1.610968,-0.026279 -2.923199,-0.00887 -3.769532,0.097656 -1.443902,0.1817447 -3.20917,0.5868089 -4.394531,1.1503906 -2.520075,1.198173 -4.411674,4.1891501 -5.9277342,7.8515626 -0.5473882,1.322348 -0.8684109,2.640535 -1.0722657,4.326172 -0.082831,0.684916 -0.177457,1.080354 -0.2246093,1.205078 0.086422,-0.06113 -0.084546,0.0352 -0.3789063,0.0918 -0.3169021,0.06093 -0.7401868,0.103843 -1.1582031,0.105469 -0.7335728,0.0029 -1.4615542,0.05271 -2.1054688,0.136718 C 3.537726,16.681668 3.0584348,16.728832 2.4296875,17.033203 2.1925659,17.147992 1.8732405,17.291202 1.5292969,17.625 1.1853532,17.958798 0.94093797,18.451795 0.83398438,18.873047 0.62007718,19.71555 0.64647342,20.498372 0.625,22.027344 c -0.0210969,1.502161 -0.0315702,2.360962 0.0742188,3.121094 0.10578895,0.760131 0.52361295,1.530804 0.89453125,1.935546 0.353511,0.385747 0.9849984,0.783709 1.5878906,0.923828 0.6028922,0.14012 1.1797925,0.150911 2.0019532,0.154297 0.5745476,0.0024 1.8212197,0.03477 2.6875,0.07227 l 0.1054687,0.0039 0,14.115235 0,15.628906 a 1.5815309,1.5815309 0 0 0 1.5820313,1.582031 l 4.3242182,0 4.326172,0 a 1.5815309,1.5815309 0 0 0 1.582032,-1.582031 l 0,-15.646484 0,-14.0625 8.457031,0 8.458984,0 0.002,2.238281 c 0.0031,2.661215 0.04717,6.018663 0.107422,8.894531 0.06025,2.875868 0.122574,5.142226 0.210938,6.070312 0.479045,5.031417 1.476559,8.60706 3.943359,10.94336 2.4668,2.336299 6.034489,3.042455 10.880859,3.035156 1.709826,-0.0026 2.828844,-0.03587 3.777344,-0.230469 0.948501,-0.194593 1.889521,-0.778756 2.330078,-1.515625 0.165983,-0.277625 0.357456,-0.839704 0.398438,-1.302734 0.04098,-0.46303 0.04102,-0.995357 0.04102,-1.947266 0,-1.184287 -0.0047,-1.89032 -0.0918,-2.523437 -0.08711,-0.633118 -0.404634,-1.320053 -0.71875,-1.693359 -0.318541,-0.378564 -1.03008,-0.828038 -1.66211,-0.970704 -0.63203,-0.142665 -1.329786,-0.195539 -2.523437,-0.287109 -2.180265,-0.167256 -2.529311,-0.261464 -3.144532,-0.65625 -1.267428,-0.813307 -2.052536,-2.321205 -2.544921,-6.191406 -0.294915,-2.318053 -0.363926,-4.081878 -0.421875,-10.654297 -0.03189,-3.616692 -0.08607,-8.117407 -0.121094,-10.027344 l -0.06445,-3.443359 a 1.5815309,1.5815309 0 0 0 -1.582031,-1.552735 l -10.800782,-0.002 c -7.409221,-0.001 -11.370256,-0.02555 -13.382812,-0.18164 -0.895281,-0.06944 -1.258672,-0.173675 -1.402344,-0.21875 0.0059,-0.08663 0.0074,-0.145688 0.04297,-0.416016 0.139983,-1.063426 0.187388,-1.131994 0.599609,-1.517578 0.490545,-0.458848 0.53996,-0.477981 2.19336,-0.859375 1.773787,-0.409166 2.604599,-0.686088 3.347656,-1.197266 0.852753,-0.586645 1.34638,-1.494401 1.652344,-2.5097654 0.305963,-1.0153643 0.456557,-2.2060012 0.523437,-3.671875 0.03897,-0.8540813 0.0668,-1.4568691 -0.115234,-2.1484375 C 27.999602,3.0447598 27.360328,2.331479 26.839844,2.0527344 26.46677,1.8529366 25.976917,1.747262 25.474609,1.7070312 24.972301,1.6668005 24.314771,1.6507864 23.212891,1.6328125 Z"
       transform="scale(0.8,0.8)" />
    <path
       sodipodi:type="inkscape:offset"
       inkscape:radius="11.05196"
       inkscape:original="M 320 380 C 293 380 290 383 290 410 C 290 437 293 440 320 440 C 347 440 350 437 350 410 C 350 383 347 380 320 380 z "
       style="display:inline;fill:#ffffff;fill-opacity:1;stroke:none"
       id="path4217"
       d="m 320,368.94727 c -6.95467,0 -12.63607,0.13566 -17.95508,1.05273 -5.31901,0.91707 -10.79053,2.86671 -14.98437,7.06055 -4.19384,4.19384 -6.14348,9.66536 -7.06055,14.98437 -0.91707,5.31901 -1.05273,11.00041 -1.05273,17.95508 0,6.95467 0.13566,12.63607 1.05273,17.95508 0.91707,5.31901 2.86671,10.79053 7.06055,14.98437 4.19384,4.19384 9.66536,6.14348 14.98437,7.06055 5.31901,0.91707 11.00041,1.05273 17.95508,1.05273 6.95467,0 12.63607,-0.13566 17.95508,-1.05273 5.31901,-0.91707 10.79053,-2.86671 14.98437,-7.06055 4.19384,-4.19384 6.14348,-9.66536 7.06055,-14.98437 0.91707,-5.31901 1.05273,-11.00041 1.05273,-17.95508 0,-6.95467 -0.13566,-12.63607 -1.05273,-17.95508 -0.91707,-5.31901 -2.86671,-10.79053 -7.06055,-14.98437 C 348.74561,372.86671 343.27409,370.91707 337.95508,370 332.63607,369.08293 326.95467,368.94727 320,368.94727 Z"
       transform="matrix(0.1,0,0,-0.1,1.6,46.4)" />
  </g>
  <g
     inkscape:groupmode="layer"
     id="layer2"
     inkscape:label="fg"
     style="display:inline">
    <path
       transform="matrix(0.1,0,0,-0.1,1.6,46.4)"
       d="m 290,410 c 0,-27 3,-30 30,-30 27,0 30,3 30,30 0,27 -3,30 -30,30 -27,0 -30,-3 -30,-30 z"
       id="path3344"
       style="fill:#e4342d;fill-opacity:1;stroke:none"
       inkscape:connector-curvature="0" />
    <path
       sodipodi:nodetypes="csssscccccccccscssscscccsc"
       inkscape:connector-curvature="0"
       style="display:inline;fill:#84b819;fill-opacity:1;stroke:none"
       id="path4182"
       d="M 107,429 C 86,417 60,368 60,340 60,324 54,320 30,320 2,320 0,317 0,285 0,253 2,250 30,250 l 30,0 0,-125 0,-125 35,0 35,0 0,125 0,125 80,0 80,0 0,-91 C 290,32 310,1 393,0 c 46,0 47,1 47,30 0,27 -3,30 -29,30 -50,0 -61,29 -61,152 l 0,108 -111,0 c -109,0 -110,0 -107,22 2,17 11,24 33,28 25,4 30,10 33,38 3,31 2,32 -35,32 -21,0 -46,-5 -56,-11 z"
       transform="matrix(0.1,0,0,-0.1,1.6,46.4)" />
  </g>
  <g
     inkscape:groupmode="layer"
     id="layer3"
     inkscape:label="Layer 3">
    <g
       style="font-style:normal;font-weight:normal;font-size:32px;line-height:125%;font-family:sans-serif;letter-spacing:0px;word-spacing:0px;fill:#000000;fill-opacity:1;stroke:none;stroke-width:1px;stroke-linecap:butt;stroke-linejoin:miter;stroke-opacity:1"
       id="text3639">
      <path
         d="m 54.942219,15.629303 0,1.195312 -1.375,0 q -0.773438,0 -1.078125,0.3125 -0.296875,0.3125 -0.296875,1.125 l 0,0.773438 2.367187,0 0,1.117187 -2.367187,0 0,7.632813 -1.445313,0 0,-7.632813 -1.375,0 0,-1.117187 1.375,0 0,-0.609375 q 0,-1.460938 0.679688,-2.125 0.679687,-0.671875 2.15625,-0.671875 l 1.359375,0 z"
         style="font-size:16px"
         id="path3646" />
      <path
         d="m 60.114094,23.387115 q -1.742188,0 -2.414063,0.398438 -0.671875,0.398437 -0.671875,1.359375 0,0.765625 0.5,1.21875 0.507813,0.445312 1.375,0.445312 1.195313,0 1.914063,-0.84375 0.726562,-0.851562 0.726562,-2.257812 l 0,-0.320313 -1.429687,0 z m 2.867187,-0.59375 0,4.992188 -1.4375,0 0,-1.328125 q -0.492187,0.796875 -1.226562,1.179687 -0.734375,0.375 -1.796875,0.375 -1.34375,0 -2.140625,-0.75 -0.789063,-0.757812 -0.789063,-2.023437 0,-1.476563 0.984375,-2.226563 0.992188,-0.75 2.953125,-0.75 l 2.015625,0 0,-0.140625 q 0,-0.992187 -0.65625,-1.53125 -0.648437,-0.546875 -1.828125,-0.546875 -0.75,0 -1.460937,0.179688 -0.710938,0.179687 -1.367188,0.539062 l 0,-1.328125 q 0.789063,-0.304687 1.53125,-0.453125 0.742188,-0.15625 1.445313,-0.15625 1.898437,0 2.835937,0.984375 0.9375,0.984375 0.9375,2.984375 z"
         style="font-size:16px"
         id="path3648" />
      <path
         d="m 65.895344,15.629303 1.445312,0 0,7.179687 4.289063,-3.773437 1.835937,0 -4.640625,4.09375 4.835938,4.65625 -1.875,0 -4.445313,-4.273438 0,4.273438 -1.445312,0 0,-12.15625 z"
         style="font-size:16px"
         id="path3650" />
      <path
         d="m 74.582844,24.332428 0,-5.296875 1.4375,0 0,5.242187 q 0,1.242188 0.484375,1.867188 0.484375,0.617187 1.453125,0.617187 1.164062,0 1.835937,-0.742187 0.679688,-0.742188 0.679688,-2.023438 l 0,-4.960937 1.4375,0 0,8.75 -1.4375,0 0,-1.34375 q -0.523438,0.796875 -1.21875,1.1875 -0.6875,0.382812 -1.601563,0.382812 -1.507812,0 -2.289062,-0.9375 -0.78125,-0.9375 -0.78125,-2.742187 z m 3.617187,-5.507813 0,0 z"
         style="font-size:16px"
         id="path3652" />
      <path
         d="m 84.887531,15.629303 1.4375,0 0,12.15625 -1.4375,0 0,-12.15625 z"
         style="font-size:16px"
         id="path3654" />
      <path
         d="m 90.746906,16.551178 0,2.484375 2.960938,0 0,1.117187 -2.960938,0 0,4.75 q 0,1.070313 0.289063,1.375 0.296875,0.304688 1.195312,0.304688 l 1.476563,0 0,1.203125 -1.476563,0 q -1.664062,0 -2.296875,-0.617188 -0.632812,-0.625 -0.632812,-2.265625 l 0,-4.75 -1.054688,0 0,-1.117187 1.054688,0 0,-2.484375 1.445312,0 z"
         style="font-size:16px"
         id="path3656" />
      <path
         d="m 99.582844,23.387115 q -1.742188,0 -2.414063,0.398438 -0.671875,0.398437 -0.671875,1.359375 0,0.765625 0.5,1.21875 0.507813,0.445312 1.375,0.445312 1.195313,0 1.914064,-0.84375 0.72656,-0.851562 0.72656,-2.257812 l 0,-0.320313 -1.429686,0 z m 2.867186,-0.59375 0,4.992188 -1.4375,0 0,-1.328125 q -0.49219,0.796875 -1.226561,1.179687 -0.734375,0.375 -1.796875,0.375 -1.34375,0 -2.140625,-0.75 -0.789063,-0.757812 -0.789063,-2.023437 0,-1.476563 0.984375,-2.226563 0.992188,-0.75 2.953125,-0.75 l 2.015624,0 0,-0.140625 q 0,-0.992187 -0.65625,-1.53125 -0.648436,-0.546875 -1.828124,-0.546875 -0.75,0 -1.460937,0.179688 -0.710938,0.179687 -1.367188,0.539062 l 0,-1.328125 q 0.789063,-0.304687 1.53125,-0.453125 0.742188,-0.15625 1.445313,-0.15625 1.898436,0 2.835936,0.984375 0.9375,0.984375 0.9375,2.984375 z m -2.976561,-7.132812 1.585941,0 0,1.578125 -1.585941,0 0,-1.578125 z m -3.054688,0 1.585938,0 0,1.578125 -1.585938,0 0,-1.578125 z"
         style="font-size:16px"
         id="path3658" />
      <path
         d="m 106.84066,16.551178 0,2.484375 2.96093,0 0,1.117187 -2.96093,0 0,4.75 q 0,1.070313 0.28906,1.375 0.29687,0.304688 1.19531,0.304688 l 1.47656,0 0,1.203125 -1.47656,0 q -1.66406,0 -2.29687,-0.617188 -0.63282,-0.625 -0.63282,-2.265625 l 0,-4.75 -1.05468,0 0,-1.117187 1.05468,0 0,-2.484375 1.44532,0 z"
         style="font-size:16px"
         id="path3660" />
      <path
         d="m 121.22347,15.629303 0,1.195312 -1.375,0 q -0.77344,0 -1.07813,0.3125 -0.29687,0.3125 -0.29687,1.125 l 0,0.773438 2.36719,0 0,1.117187 -2.36719,0 0,7.632813 -1.44531,0 0,-7.632813 -1.375,0 0,-1.117187 1.375,0 0,-0.609375 q 0,-1.460938 0.67968,-2.125 0.67969,-0.671875 2.15625,-0.671875 l 1.35938,0 z"
         style="font-size:16px"
         id="path3662" />
      <path
         d="m 122.27034,24.332428 0,-5.296875 1.4375,0 0,5.242187 q 0,1.242188 0.48438,1.867188 0.48437,0.617187 1.45312,0.617187 1.16407,0 1.83594,-0.742187 0.67969,-0.742188 0.67969,-2.023438 l 0,-4.960937 1.4375,0 0,8.75 -1.4375,0 0,-1.34375 q -0.52344,0.796875 -1.21875,1.1875 -0.6875,0.382812 -1.60156,0.382812 -1.50782,0 -2.28907,-0.9375 -0.78125,-0.9375 -0.78125,-2.742187 z m 3.61719,-5.507813 0,0 z m 0.71875,-3.164062 1.58594,0 0,1.578125 -1.58594,0 0,-1.578125 z m -3.05469,0 1.58594,0 0,1.578125 -1.58594,0 0,-1.578125 z"
         style="font-size:16px"
         id="path3664" />
      <path
         d="m 137.64534,20.379303 q -0.24218,-0.140625 -0.53125,-0.203125 -0.28125,-0.07031 -0.625,-0.07031 -1.21875,0 -1.875,0.796875 -0.64843,0.789063 -0.64843,2.273438 l 0,4.609375 -1.44532,0 0,-8.75 1.44532,0 0,1.359375 q 0.45312,-0.796875 1.17968,-1.179688 0.72657,-0.390625 1.76563,-0.390625 0.14844,0 0.32812,0.02344 0.17969,0.01563 0.39844,0.05469 l 0.008,1.476563 z"
         style="font-size:16px"
         id="path3666" />
      <path
         d="m 50.512531,39.035553 1.4375,0 0,8.75 -1.4375,0 0,-8.75 z m 0,-3.40625 1.4375,0 0,1.820312 -1.4375,0 0,-1.820312 z"
         style="font-size:16px"
         id="path3668" />
      <path
         d="m 62.223469,42.504303 0,5.28125 -1.4375,0 0,-5.234375 q 0,-1.242188 -0.484375,-1.859375 -0.484375,-0.617188 -1.453125,-0.617188 -1.164063,0 -1.835938,0.742188 -0.671875,0.742187 -0.671875,2.023437 l 0,4.945313 -1.445312,0 0,-8.75 1.445312,0 0,1.359375 q 0.515625,-0.789063 1.210938,-1.179688 0.703125,-0.390625 1.617187,-0.390625 1.507813,0 2.28125,0.9375 0.773438,0.929688 0.773438,2.742188 z"
         style="font-size:16px"
         id="path3670" />
      <path
         d="m 69.535969,35.629303 0,1.195312 -1.375,0 q -0.773438,0 -1.078125,0.3125 -0.296875,0.3125 -0.296875,1.125 l 0,0.773438 2.367187,0 0,1.117187 -2.367187,0 0,7.632813 -1.445313,0 0,-7.632813 -1.375,0 0,-1.117187 1.375,0 0,-0.609375 q 0,-1.460938 0.679688,-2.125 0.679687,-0.671875 2.15625,-0.671875 l 1.359375,0 z"
         style="font-size:16px"
         id="path3672" />
      <path
         d="m 74.121906,40.043365 q -1.15625,0 -1.828125,0.90625 -0.671875,0.898438 -0.671875,2.46875 0,1.570313 0.664063,2.476563 0.671875,0.898437 1.835937,0.898437 1.148438,0 1.820313,-0.90625 0.671875,-0.90625 0.671875,-2.46875 0,-1.554687 -0.671875,-2.460937 -0.671875,-0.914063 -1.820313,-0.914063 z m 0,-1.21875 q 1.875,0 2.945313,1.21875 1.070312,1.21875 1.070312,3.375 0,2.148438 -1.070312,3.375 -1.070313,1.21875 -2.945313,1.21875 -1.882812,0 -2.953125,-1.21875 -1.0625,-1.226562 -1.0625,-3.375 0,-2.15625 1.0625,-3.375 1.070313,-1.21875 2.953125,-1.21875 z"
         style="font-size:16px"
         id="path3674" />
      <path
         d="m 85.582844,40.379303 q -0.242188,-0.140625 -0.53125,-0.203125 -0.28125,-0.07031 -0.625,-0.07031 -1.21875,0 -1.875,0.796875 -0.648438,0.789063 -0.648438,2.273438 l 0,4.609375 -1.445312,0 0,-8.75 1.445312,0 0,1.359375 q 0.453125,-0.796875 1.179688,-1.179688 0.726562,-0.390625 1.765625,-0.390625 0.148437,0 0.328125,0.02344 0.179687,0.01563 0.398437,0.05469 l 0.0078,1.476563 z"
         style="font-size:16px"
         id="path3676" />
      <path
         d="m 93.637531,40.71524 q 0.539063,-0.96875 1.289063,-1.429687 0.75,-0.460938 1.765625,-0.460938 1.367187,0 2.109375,0.960938 0.742187,0.953125 0.742187,2.71875 l 0,5.28125 -1.445312,0 0,-5.234375 q 0,-1.257813 -0.445313,-1.867188 -0.445312,-0.609375 -1.359375,-0.609375 -1.117187,0 -1.765625,0.742188 -0.648437,0.742187 -0.648437,2.023437 l 0,4.945313 -1.445313,0 0,-5.234375 q 0,-1.265625 -0.445312,-1.867188 -0.445313,-0.609375 -1.375,-0.609375 -1.101563,0 -1.75,0.75 -0.648438,0.742188 -0.648438,2.015625 l 0,4.945313 -1.445312,0 0,-8.75 1.445312,0 0,1.359375 q 0.492188,-0.804688 1.179688,-1.1875 0.6875,-0.382813 1.632812,-0.382813 0.953125,0 1.617188,0.484375 0.671875,0.484375 0.992187,1.40625 z"
         style="font-size:16px"
         id="path3678" />
      <path
         d="m 106.39534,43.387115 q -1.74218,0 -2.41406,0.398438 -0.67187,0.398437 -0.67187,1.359375 0,0.765625 0.5,1.21875 0.50781,0.445312 1.375,0.445312 1.19531,0 1.91406,-0.84375 0.72656,-0.851562 0.72656,-2.257812 l 0,-0.320313 -1.42969,0 z m 2.86719,-0.59375 0,4.992188 -1.4375,0 0,-1.328125 q -0.49219,0.796875 -1.22656,1.179687 -0.73438,0.375 -1.79688,0.375 -1.34375,0 -2.14062,-0.75 -0.78906,-0.757812 -0.78906,-2.023437 0,-1.476563 0.98437,-2.226563 0.99219,-0.75 2.95313,-0.75 l 2.01562,0 0,-0.140625 q 0,-0.992187 -0.65625,-1.53125 -0.64844,-0.546875 -1.82812,-0.546875 -0.75,0 -1.46094,0.179688 -0.71094,0.179687 -1.36719,0.539062 l 0,-1.328125 q 0.78906,-0.304687 1.53125,-0.453125 0.74219,-0.15625 1.44531,-0.15625 1.89844,0 2.83594,0.984375 0.9375,0.984375 0.9375,2.984375 z"
         style="font-size:16px"
         id="path3680" />
      <path
         d="m 113.65316,36.551178 0,2.484375 2.96093,0 0,1.117187 -2.96093,0 0,4.75 q 0,1.070313 0.28906,1.375 0.29687,0.304688 1.19531,0.304688 l 1.47656,0 0,1.203125 -1.47656,0 q -1.66406,0 -2.29687,-0.617188 -0.63282,-0.625 -0.63282,-2.265625 l 0,-4.75 -1.05468,0 0,-1.117187 1.05468,0 0,-2.484375 1.44532,0 z"
         style="font-size:16px"
         id="path3682" />
      <path
         d="m 118.51253,39.035553 1.4375,0 0,8.75 -1.4375,0 0,-8.75 z m 0,-3.40625 1.4375,0 0,1.820312 -1.4375,0 0,-1.820312 z"
         style="font-size:16px"
         id="path3684" />
      <path
         d="m 122.89534,35.629303 1.44532,0 0,7.179687 4.28906,-3.773437 1.83594,0 -4.64063,4.09375 4.83594,4.65625 -1.875,0 -4.44531,-4.273438 0,4.273438 -1.44532,0 0,-12.15625 z"
         style="font-size:16px"
         id="path3686" />
    </g>
  </g>
</svg>
